<svg xmlns="http://www.w3.org/2000/svg" xmlns:xlink="http://www.w3.org/1999/xlink" id="a" viewBox="0 0 894.46 400">
  <defs>
    <linearGradient id="b" x1="423.31" y1="274.93" x2="894.46" y2="274.93" gradientUnits="userSpaceOnUse">
      <stop offset=".2" stop-color="#8929b0" />
      <stop offset=".33" stop-color="#8029ad" />
      <stop offset=".53" stop-color="#6a29a5" />
      <stop offset=".78" stop-color="#472998" />
      <stop offset="1" stop-color="#222a8c" />
    </linearGradient>
    <linearGradient id="c" x1="457.89" y1="208.39" x2="480.11" y2="331.45" xlink:href="#b" />
    <linearGradient id="d" x1="462.07" y1="220.36" x2="479.32" y2="315.9" xlink:href="#b" />
    <linearGradient id="e" x1="378.8" y1="346.58" x2="378.8" y2="273.46" gradientUnits="userSpaceOnUse">
      <stop offset=".21" stop-color="#f35d26" />
      <stop offset=".28" stop-color="#f36123" />
      <stop offset=".53" stop-color="#f46b1f" />
      <stop offset=".86" stop-color="#f56e1e" />
    </linearGradient>
    <linearGradient id="f" x1="385.73" y1="-23.03" x2="1124.88" y2="417.54" gradientUnits="userSpaceOnUse">
      <stop offset=".08" stop-color="#4c3ba7" />
      <stop offset=".17" stop-color="#5154b7" />
      <stop offset=".3" stop-color="#5978ce" />
      <stop offset=".38" stop-color="#5d86d7" />
      <stop offset=".42" stop-color="#6979d0" />
      <stop offset=".61" stop-color="#a043b5" />
      <stop offset=".7" stop-color="#b62fab" />
    </linearGradient>
    <linearGradient id="g" x1="349.11" y1="6.5" x2="420.02" y2="340.05" gradientUnits="userSpaceOnUse">
      <stop offset=".03" stop-color="#f7b515" />
      <stop offset=".19" stop-color="#f69718" />
      <stop offset=".37" stop-color="#f5801b" />
      <stop offset=".53" stop-color="#f5721d" />
      <stop offset=".67" stop-color="#f56e1e" />
      <stop offset=".7" stop-color="#f16a25" />
      <stop offset=".74" stop-color="#e8613a" />
      <stop offset=".8" stop-color="#d8515d" />
      <stop offset=".86" stop-color="#c33c8d" />
      <stop offset=".89" stop-color="#b62fab" />
      <stop offset=".93" stop-color="#a92dac" />
      <stop offset="1" stop-color="#8929b0" />
    </linearGradient>
  </defs>
  <path
    d="m894.46,291.5c-34.49,27.54-150.61,13.28-191.41,5.84-17.93-3.26-32.96.65-44.19,6.08-10.8,5.21-19.82,13.43-26.5,23.38-8.57,12.76-32.2,38.28-84.1,38.28-69.21,0-124.93-35.42-124.93-35.42l124.93-32.32,20.85-98.06,87.22-7.46,82.38-7.04s81.57,33.95,128.2,65.12c17.99,24.56,27.27,41.08,27.55,41.6h.01Z"
    style="fill:url(#b);" />
  <path
    d="m467.99,307.39c-19.71,0-32.78-3.65-39.93-11.16-4.06-4.26-6.05-9.63-5.76-15.53.68-14.13-13.86-23.07-14.01-23.16l-14.52-8.51,14.44-8.71,36.04-21.9,57.99,13.78,42.24,59.94-62.72,14.62-.64.07c-.23.02-5.76.58-13.13.58h0Z"
    style="fill:url(#c);" />
  <path
    d="m413.41,248.9s19.91,11.67,18.91,32.28c-1,20.61,47.77,15.64,47.77,15.64l47.57-11.09-31.47-44.65-50.27-11.94-32.52,19.76Z"
    style="fill:url(#d);" />
  <path d="m393.51,35.39l-35.61-18.36s329.26-118.99,536.56,274.47h0l-180.48-115.12-229.03-124.41-91.45-16.59Z"
    style="fill:#fdfcfb;" />
  <path
    d="m617.3,280.98c-8.71-7.18-19.04-12.2-29.78-15.56-11.31-3.53-23.12-5.31-34.93-5.99-12.13-.7-24.32-.25-36.4.99-8.3.85-16.57,2.08-24.77,3.65,0,0,0,0,0,0,7.82,8.41,11.9,17.11,11.9,17.11,0,0,0,0,0,0H153.14c-13.39,0-24.24,4.83-24.24,18.21h0c0,16.65,13.62,30.27,30.27,30.27h433.09s0,0,0,0c3.41-14.04,17.35-26.26,36.46-36.73,0,0,0,0,0,0-3.31-4.4-7.13-8.42-11.41-11.94Z"
    style="fill:url(#e);" />
  <path
    d="m597.76,325.86c9.02-17.17,23.8-30.86,41.95-37.92,7.09-2.76,4.01-14.33-3.18-11.53-21.05,8.19-38.56,23.36-49.1,43.42-3.58,6.81,6.74,12.86,10.33,6.04h0Z"
    style="fill:#8929b0;" />
  <path
    d="m894.45,291.49l-99.25-46.43s-68.36-24.53-138.88-53.25c-70.59-28.73-143.35-61.65-151.97-78.34-17.23-33.38-110.83-78.09-110.83-78.09,250.38-45.47,412.21,130.97,473.38,214.51,17.99,24.56,27.27,41.08,27.55,41.6Z"
    style="fill:url(#f);" />
  <path
    d="m425.62,107.01H5.82C2.55,107.01-.1,109.71,0,113.01c.1,3.19,2.87,5.64,6.06,5.64h74.3c4.75,0,9.25,2.11,12.3,5.76,5.82,6.97,16.27,17.78,25.08,17.78h250.23c23.89,0,39.15,19.26,39.15,19.26,13.71,14.15,0,15.1,0,15.1h-175.84c-9.05,0-16.9,5.11-20.84,12.59-2.73,5.18-2.13,11.49,1.43,16.14l2.27,2.95c2.48,3.15,2.61,7.58.25,10.82-1.09,1.5-4.57,1.58-5.36,1.58H12.12c-6.03,0-11.02,4.81-11.11,10.84-.15,9.55,7.62,17.41,17.14,17.41h446.34c25.21,3.17,38.84,32.28,38.84,32.28h0c17,18.72,38.65,32.59,62.75,40.21l26.16,8.27c13.94-57.39,203.95-84.6,203.95-84.6-115.19-137.35-370.58-138.05-370.58-138.05Z"
    style="fill:url(#g);" />
</svg>